<svg width="70" height="70" viewBox="90 0 70 65" fill="none" xmlns="http://www.w3.org/2000/svg">
<g clip-path="url(#clip0)">
<path d="M157.98 31.87L152.83 26.72C152.83 26.72 152.82 26.72 152.82 26.71C153.09 25.91 153.24 25.05 153.24 24.18C153.24 22.23 152.48 20.39 151.1 19C150.46 18.36 149.72 17.86 148.91 17.5V9.94C148.91 9.57 148.61 9.27 148.24 9.27H140.96H140.95C140.57 8.51 140.08 7.8 139.46 7.18C138.08 5.8 136.24 5.04 134.29 5.04C133.38 5.04 132.5 5.21 131.68 5.52L126.33 0.180001C126.07 -0.0799994 125.64 -0.0799994 125.38 0.180001L120.23 5.33C120.23 5.33 120.23 5.33 120.22 5.34C119.42 5.07 118.57 4.92 117.69 4.92C117.69 4.92 117.69 4.92 117.68 4.92C114.71 4.92 112.15 6.7 111.01 9.25H103.45C103.08 9.25 102.78 9.55 102.78 9.92V17.2C102.02 17.58 101.31 18.08 100.69 18.7C99.31 20.08 98.55 21.92 98.55 23.88C98.55 24.79 98.72 25.67 99.03 26.49L93.69 31.84C93.43 32.1 93.43 32.53 93.69 32.79L98.84 37.94C98.84 37.94 98.85 37.94 98.85 37.95C98.58 38.75 98.43 39.6 98.43 40.48C98.43 42.44 99.19 44.27 100.57 45.66C101.21 46.3 101.95 46.8 102.76 47.16V54.72C102.76 55.09 103.06 55.39 103.43 55.39H110.71H110.72C111.1 56.15 111.6 56.86 112.22 57.48C113.6 58.86 115.44 59.62 117.4 59.62C118.31 59.62 119.19 59.45 120.01 59.14L125.36 64.48C125.49 64.61 125.66 64.68 125.83 64.68C126 64.68 126.18 64.61 126.31 64.48L131.46 59.33C131.46 59.33 131.46 59.33 131.47 59.32C132.27 59.59 133.12 59.74 134 59.74C134 59.74 134 59.74 134.01 59.74C136.98 59.74 139.54 57.96 140.68 55.41H148.24C148.61 55.41 148.91 55.11 148.91 54.74V47.46V47.45C149.67 47.07 150.38 46.58 151 45.96C152.38 44.58 153.14 42.74 153.14 40.78C153.14 39.87 152.97 39 152.66 38.17L158 32.82C158.25 32.56 158.25 32.13 157.98 31.87ZM152.01 36.9C151.72 36.43 151.38 36 150.98 35.6C149.8 34.41 148.14 33.78 146.56 33.9C145.24 34 144.08 34.63 143.29 35.71C142.42 37.04 142.51 38.61 143.5 39.7C144.11 40.37 145.06 40.68 145.96 40.52C146.55 40.41 147.04 40.11 147.33 39.69C147.35 39.67 147.36 39.64 147.38 39.62C147.41 39.57 147.44 39.51 147.47 39.46C147.48 39.44 147.49 39.43 147.49 39.41C147.5 39.39 147.51 39.38 147.51 39.36C147.52 39.34 147.52 39.31 147.52 39.29C147.56 39.17 147.58 39.03 147.58 38.9C147.58 38.14 146.97 37.54 146.22 37.54C145.47 37.54 144.86 38.15 144.86 38.9C144.86 38.96 144.87 39.02 144.88 39.08C144.74 39.01 144.6 38.93 144.48 38.8C143.91 38.17 143.87 37.25 144.37 36.48C145.06 35.54 145.99 35.29 146.64 35.24C147.82 35.15 149.11 35.65 150.01 36.55C151.14 37.68 151.76 39.18 151.76 40.78C151.76 42.38 151.14 43.88 150.01 45.01C148.77 46.25 147.13 46.93 145.47 46.89C143.96 46.85 142.62 46.21 141.59 45.04C140.65 43.98 139.67 42.32 140.47 38.86C140.55 38.52 140.35 38.17 140.02 38.07C139.69 37.96 139.33 38.13 139.2 38.46C139.18 38.5 137.7 42.1 133.44 44.55C133.12 44.73 133.01 45.15 133.19 45.47C133.37 45.79 133.78 45.9 134.11 45.72C136.32 44.45 137.85 42.9 138.85 41.6C138.94 43.77 139.83 45.07 140.59 45.93C141.86 47.36 143.58 48.18 145.44 48.23C145.51 48.23 145.58 48.23 145.64 48.23C146.28 48.23 146.92 48.13 147.54 47.96V54.07H141.11C141.23 53.54 141.3 52.99 141.3 52.42C141.3 50.74 140.58 49.13 139.38 48.09C138.38 47.23 137.12 46.86 135.78 47.06C134.22 47.39 133.17 48.56 133.11 50.04C133.07 50.94 133.51 51.83 134.27 52.36C134.76 52.7 135.32 52.83 135.82 52.75C135.85 52.74 135.88 52.74 135.91 52.73C135.97 52.72 136.02 52.7 136.08 52.68C136.1 52.68 136.12 52.67 136.13 52.66C136.15 52.65 136.17 52.65 136.18 52.64C136.2 52.63 136.22 52.61 136.24 52.6C136.35 52.54 136.47 52.47 136.56 52.37C137.09 51.84 137.09 50.98 136.56 50.45C136.03 49.92 135.17 49.92 134.63 50.45C134.59 50.49 134.55 50.54 134.51 50.59C134.46 50.44 134.42 50.29 134.43 50.11C134.47 49.26 135.1 48.58 136 48.39C137.16 48.22 137.99 48.69 138.48 49.12C139.37 49.89 139.93 51.16 139.93 52.43C139.93 55.73 137.25 58.41 133.95 58.41H133.94C132.18 58.41 130.53 57.72 129.4 56.53C128.37 55.43 127.87 54.03 127.97 52.47C128.05 51.05 128.54 49.19 131.55 47.31C131.85 47.13 131.95 46.74 131.79 46.43C131.63 46.12 131.25 45.98 130.93 46.12C130.89 46.14 127.3 47.63 122.55 46.35C122.2 46.25 121.82 46.47 121.73 46.82C121.63 47.18 121.84 47.55 122.2 47.64C124.66 48.31 126.84 48.29 128.46 48.08C126.99 49.68 126.7 51.23 126.63 52.38C126.52 54.29 127.16 56.09 128.43 57.44C128.92 57.96 129.48 58.39 130.11 58.74L125.79 63.06L121.24 58.51C121.7 58.22 122.14 57.88 122.54 57.48C123.72 56.29 124.36 54.64 124.24 53.06C124.14 51.74 123.51 50.59 122.43 49.79C121.1 48.92 119.53 49 118.44 50C117.77 50.61 117.46 51.55 117.62 52.46C117.73 53.05 118.03 53.54 118.45 53.83C118.47 53.85 118.49 53.86 118.52 53.88C118.58 53.91 118.63 53.94 118.69 53.97C118.71 53.98 118.72 53.98 118.73 53.99C118.75 54 118.76 54.01 118.78 54.02C118.8 54.03 118.83 54.03 118.86 54.03C118.99 54.07 119.12 54.1 119.25 54.1C120 54.1 120.61 53.49 120.61 52.74C120.61 51.99 120 51.38 119.25 51.38C119.19 51.38 119.13 51.39 119.07 51.4C119.14 51.26 119.22 51.12 119.35 51C119.98 50.43 120.9 50.4 121.67 50.9C122.61 51.59 122.86 52.51 122.91 53.17C123 54.35 122.49 55.64 121.59 56.54C120.46 57.67 118.96 58.29 117.36 58.29C115.76 58.29 114.26 57.67 113.13 56.54C111.89 55.3 111.2 53.64 111.25 52C111.3 50.49 111.94 49.15 113.1 48.11C114.16 47.17 115.82 46.19 119.27 46.99C119.61 47.07 119.96 46.87 120.07 46.54C120.17 46.21 120 45.85 119.68 45.72C119.64 45.71 116.04 44.22 113.59 39.96C113.41 39.64 113 39.53 112.67 39.71C112.35 39.89 112.24 40.31 112.42 40.63C113.69 42.84 115.24 44.37 116.54 45.37C114.37 45.46 113.07 46.35 112.21 47.11C110.78 48.38 109.96 50.1 109.91 51.96C109.89 52.67 109.98 53.38 110.17 54.06H104.07V47.63C104.6 47.75 105.15 47.82 105.72 47.82C107.4 47.82 109.01 47.1 110.05 45.9C110.91 44.9 111.28 43.63 111.08 42.3C110.75 40.74 109.58 39.7 108.1 39.63C107.2 39.59 106.31 40.03 105.78 40.79C105.44 41.28 105.31 41.84 105.4 42.35C105.41 42.38 105.41 42.4 105.41 42.43C105.43 42.49 105.44 42.55 105.46 42.61C105.47 42.62 105.47 42.64 105.47 42.65C105.48 42.67 105.48 42.69 105.49 42.71C105.5 42.73 105.52 42.75 105.54 42.78C105.6 42.89 105.67 43 105.77 43.1C106.3 43.63 107.16 43.63 107.69 43.1C108.22 42.57 108.22 41.71 107.69 41.18C107.65 41.14 107.6 41.1 107.55 41.07C107.7 41.02 107.85 40.98 108.03 40.99C108.88 41.03 109.56 41.66 109.75 42.56C109.92 43.71 109.45 44.55 109.02 45.04C108.25 45.93 106.98 46.49 105.71 46.49C104.11 46.49 102.61 45.87 101.48 44.74C100.35 43.61 99.73 42.11 99.73 40.51C99.73 38.75 100.41 37.09 101.61 35.97C102.71 34.94 104.11 34.44 105.66 34.53C107.08 34.61 108.94 35.1 110.82 38.11C111 38.41 111.39 38.51 111.7 38.35C112.01 38.19 112.15 37.81 112.01 37.49C111.99 37.46 110.5 33.86 111.78 29.11C111.88 28.75 111.67 28.38 111.31 28.29C110.95 28.19 110.58 28.4 110.49 28.76C109.82 31.23 109.84 33.4 110.05 35.02C108.45 33.55 106.9 33.26 105.75 33.19C103.84 33.07 102.05 33.71 100.69 34.99C100.17 35.48 99.74 36.05 99.39 36.67L95.07 32.35L99.62 27.8C99.91 28.26 100.25 28.7 100.65 29.1C101.74 30.19 103.23 30.82 104.69 30.82C104.81 30.82 104.94 30.81 105.06 30.81C106.38 30.71 107.53 30.08 108.33 29C109.2 27.67 109.11 26.1 108.12 25.01C107.51 24.34 106.57 24.02 105.66 24.19C105.07 24.3 104.58 24.6 104.29 25.02C104.27 25.04 104.26 25.06 104.24 25.09C104.21 25.15 104.18 25.2 104.15 25.26C104.14 25.27 104.14 25.28 104.13 25.29C104.12 25.31 104.11 25.33 104.1 25.34C104.09 25.37 104.09 25.39 104.09 25.42C104.05 25.54 104.03 25.67 104.03 25.81C104.03 26.56 104.64 27.17 105.39 27.17C106.14 27.17 106.75 26.56 106.75 25.81C106.75 25.75 106.74 25.69 106.73 25.63C106.87 25.7 107.01 25.78 107.13 25.91C107.7 26.54 107.74 27.46 107.24 28.23C106.55 29.17 105.62 29.42 104.97 29.47C103.79 29.56 102.5 29.05 101.6 28.16C100.52 27 99.9 25.5 99.9 23.9C99.9 22.3 100.52 20.8 101.65 19.67C102.89 18.43 104.55 17.74 106.2 17.79C107.71 17.84 109.05 18.48 110.09 19.64C111.03 20.7 112.01 22.36 111.21 25.81C111.13 26.16 111.33 26.5 111.66 26.6C112 26.71 112.35 26.53 112.48 26.21C112.5 26.17 113.98 22.57 118.24 20.12C118.56 19.93 118.67 19.52 118.49 19.2C118.31 18.88 117.9 18.77 117.57 18.95C115.36 20.22 113.83 21.77 112.83 23.06C112.74 20.89 111.85 19.59 111.09 18.73C109.82 17.3 108.1 16.48 106.24 16.43C105.53 16.41 104.82 16.5 104.14 16.69V10.59H110.57C110.45 11.12 110.38 11.67 110.38 12.24C110.38 13.92 111.1 15.53 112.3 16.57C113.3 17.43 114.57 17.8 115.89 17.6C117.45 17.27 118.5 16.1 118.56 14.62C118.6 13.72 118.16 12.82 117.4 12.3C116.91 11.96 116.35 11.82 115.84 11.92C115.81 11.92 115.79 11.93 115.76 11.93C115.7 11.94 115.64 11.96 115.58 11.98C115.56 11.98 115.55 11.99 115.53 12C115.51 12.01 115.49 12.01 115.47 12.02C115.45 12.03 115.43 12.05 115.41 12.06C115.29 12.12 115.18 12.19 115.09 12.29C114.56 12.82 114.56 13.68 115.09 14.22C115.62 14.75 116.48 14.75 117.02 14.22C117.06 14.18 117.1 14.13 117.14 14.08C117.19 14.23 117.23 14.39 117.22 14.56C117.18 15.41 116.55 16.09 115.65 16.28C114.5 16.45 113.67 15.98 113.17 15.55C112.28 14.78 111.72 13.51 111.72 12.24C111.72 8.94 114.4 6.26 117.7 6.26C119.46 6.26 121.11 6.95 122.24 8.14C123.27 9.24 123.77 10.64 123.68 12.19C123.59 13.61 123.11 15.48 120.1 17.35C119.8 17.53 119.7 17.92 119.86 18.23C119.98 18.46 120.21 18.59 120.46 18.59C120.55 18.59 120.64 18.57 120.72 18.54C120.76 18.53 124.38 17.03 129.1 18.31C129.45 18.41 129.83 18.2 129.92 17.84C130.02 17.48 129.8 17.11 129.45 17.02C126.99 16.35 124.81 16.37 123.19 16.58C124.66 14.98 124.95 13.43 125.02 12.28C125.14 10.37 124.49 8.57 123.22 7.22C122.73 6.7 122.16 6.27 121.54 5.92L125.86 1.6L130.41 6.15C129.95 6.44 129.51 6.78 129.11 7.18C127.93 8.37 127.29 10.02 127.41 11.59C127.51 12.91 128.14 14.06 129.22 14.86C130.55 15.73 132.12 15.64 133.22 14.65C133.89 14.04 134.2 13.1 134.04 12.19C133.93 11.6 133.63 11.11 133.21 10.82C133.19 10.8 133.16 10.79 133.14 10.77C133.09 10.74 133.03 10.71 132.98 10.68C132.97 10.67 132.95 10.66 132.93 10.66C132.91 10.65 132.9 10.64 132.88 10.63C132.86 10.62 132.83 10.62 132.81 10.62C132.68 10.58 132.55 10.55 132.42 10.55C131.66 10.55 131.06 11.16 131.06 11.91C131.06 12.66 131.67 13.27 132.42 13.27C132.48 13.27 132.54 13.26 132.6 13.25C132.53 13.39 132.45 13.53 132.32 13.65C131.69 14.22 130.77 14.25 130 13.75C129.07 13.06 128.81 12.13 128.76 11.48C128.67 10.3 129.18 9.02 130.07 8.11C131.2 6.98 132.7 6.36 134.3 6.36C135.9 6.36 137.4 6.98 138.52 8.11C139.76 9.35 140.45 11.01 140.4 12.66C140.35 14.16 139.72 15.51 138.55 16.54C137.49 17.48 135.83 18.46 132.38 17.66C132.04 17.58 131.69 17.78 131.59 18.11C131.48 18.44 131.65 18.8 131.98 18.94C132.02 18.95 135.62 20.44 138.07 24.7C138.19 24.92 138.42 25.04 138.65 25.04C138.76 25.04 138.88 25.01 138.98 24.95C139.3 24.77 139.41 24.35 139.23 24.03C137.96 21.82 136.41 20.29 135.11 19.29C137.28 19.19 138.58 18.31 139.44 17.55C140.87 16.28 141.69 14.56 141.74 12.7C141.76 11.99 141.67 11.28 141.47 10.59H147.57V17.02C147.04 16.9 146.49 16.83 145.92 16.83C144.24 16.83 142.63 17.55 141.59 18.75C140.73 19.75 140.36 21.02 140.56 22.35C140.89 23.91 142.06 24.96 143.54 25.02C144.44 25.07 145.33 24.62 145.86 23.86C146.2 23.37 146.33 22.81 146.24 22.3C146.23 22.28 146.23 22.25 146.22 22.23C146.21 22.17 146.19 22.1 146.17 22.04C146.16 22.03 146.16 22.02 146.16 22.01C146.15 21.99 146.15 21.97 146.14 21.95C146.13 21.92 146.11 21.91 146.09 21.88C146.03 21.77 145.96 21.66 145.86 21.56C145.33 21.03 144.47 21.03 143.94 21.56C143.41 22.09 143.41 22.95 143.94 23.49C143.98 23.53 144.03 23.57 144.08 23.6C143.93 23.65 143.77 23.69 143.6 23.68C142.75 23.64 142.07 23.01 141.88 22.11C141.71 20.96 142.18 20.12 142.61 19.63C143.38 18.74 144.65 18.18 145.92 18.18C147.52 18.18 149.02 18.8 150.15 19.93C151.28 21.06 151.9 22.56 151.9 24.16C151.9 25.92 151.21 27.58 150.02 28.7C148.92 29.73 147.53 30.23 145.96 30.14C144.54 30.05 142.68 29.57 140.8 26.56C140.61 26.26 140.23 26.16 139.92 26.32C139.61 26.48 139.47 26.86 139.61 27.18C139.63 27.22 141.12 30.84 139.84 35.56C139.74 35.92 139.95 36.29 140.31 36.38C140.37 36.39 140.43 36.4 140.49 36.4C140.79 36.4 141.06 36.2 141.14 35.9C141.81 33.44 141.79 31.26 141.58 29.64C143.18 31.11 144.73 31.4 145.88 31.47C147.79 31.59 149.58 30.95 150.94 29.67C151.46 29.18 151.89 28.62 152.24 27.99L156.56 32.31L152.01 36.9Z" fill="#ffce14"/>
<path d="M120.32 39.83V39.14L122.38 39.05V26.18L120.37 26.09V25.31C120.71 25.31 121.28 25.32 122.06 25.35C122.84 25.38 123.34 25.39 123.56 25.39C123.78 25.39 124.28 25.38 125.06 25.35C125.84 25.32 126.41 25.31 126.75 25.31V26.09L124.73 26.18V39.05H127.41C128.31 39.05 129.06 38.78 129.68 38.24C130.3 37.7 130.68 36.95 130.83 35.99L130.9 35.54H131.82L131.67 39.83C131.06 39.83 130.15 39.82 128.96 39.79C127.76 39.76 126.74 39.75 125.89 39.75C124.76 39.75 123.61 39.77 122.42 39.79C121.21 39.82 120.52 39.83 120.32 39.83Z" fill="black"/>
<path d="M120.32 39.83V39.14L122.38 39.05V26.18L120.37 26.09V25.31C120.71 25.31 121.28 25.32 122.06 25.35C122.84 25.38 123.34 25.39 123.56 25.39C123.78 25.39 124.28 25.38 125.06 25.35C125.84 25.32 126.41 25.31 126.75 25.31V26.09L124.73 26.18V39.05H127.41C128.31 39.05 129.06 38.78 129.68 38.24C130.3 37.7 130.68 36.95 130.83 35.99L130.9 35.54H131.82L131.67 39.83C131.06 39.83 130.15 39.82 128.96 39.79C127.76 39.76 126.74 39.75 125.89 39.75C124.76 39.75 123.61 39.77 122.42 39.79C121.21 39.82 120.52 39.83 120.32 39.83Z" stroke="black" stroke-miterlimit="10"/>





</g>
<defs>
<clipPath id="clip0">
<rect width="251.69" height="123.59" fill="white"/>
</clipPath>
</defs>
</svg>
