<?xml version="1.0" encoding="UTF-8"?>
<svg width="700pt" height="700pt" version="1.1" viewBox="0 0 700 700" xmlns="http://www.w3.org/2000/svg" xmlns:xlink="http://www.w3.org/1999/xlink">
 
 <g>
  <path d="m193.06 93.871c4.8828-5.2578 7.2617-12.766 7.2617-22.906 0-10.012-3-17.02-9.2656-21.281-6.2578-4.1289-16.02-6.1328-29.285-6.1328l-24.902-0.003906v58.074h28.41c13.52 0 22.777-2.625 27.781-7.75z"/>
  <path d="m102.45 187.73h126.16c17.02 0 30.793-13.887 30.793-30.793v-126.14c0-17.027-13.766-30.793-30.793-30.793h-126.16c-16.887 0-30.781 13.766-30.781 30.793v126.16c0 16.895 13.895 30.781 30.781 30.781zm9.8867-166.45h49.812c22.023 0 38.047 4.2539 48.188 12.645 10.141 8.5156 15.145 21.523 15.145 39.051 0 17.648-5.1289 30.539-15.391 38.676-10.387 8.1367-26.152 12.266-47.555 12.266h-25.664v42.551h-24.535z"/>
  <path d="m595.63 323.23-20.266-116.73c-6.7812-40.016-41.23-69.062-81.762-69.062h-216.84v19.484c0 8.6992-2.2578 16.793-6.3516 23.836h68.715v12.609h-15.312c-8.5234 0-15.312 6.8672-15.312 15.398 0 8.4336 6.7812 15.312 15.312 15.312h52.359c8.5234 0 15.312-6.8672 15.312-15.312 0-8.5234-6.7812-15.398-15.312-15.398h-15.305v-12.609h132.73c19.398 0 35.84 13.922 39.051 33.059l18.094 104.2h-401.49l18.094-104.2c0.52344-3.0469 1.3047-6.0039 2.5195-8.6992h-44.965c-0.085938 0.4375-0.17578 0.875-0.26172 1.3047l-20.266 116.81c-19.66 8.8711-33.398 28.621-33.398 51.668v103.86c0 6.0039 4.875 10.789 10.875 10.789h17.57v49.754c-0.007813 11.469 9.2148 20.691 20.691 20.691h34.359c11.48 0 20.789-9.2227 20.789-20.703v-49.754h349.49v49.754c0 11.48 9.2227 20.703 20.703 20.703h34.359c11.48 0 20.789-9.2227 20.789-20.703v-49.754h17.57c6.0039 0 10.875-4.7852 10.875-10.789l0.007813-103.85c-0.015626-23.047-13.762-42.707-33.426-51.668zm-425.33 116.3c-19.66 0-35.754-16.09-35.754-35.754 0-19.66 16.09-35.664 35.754-35.664 19.66 0 35.664 16.004 35.664 35.664-0.007813 19.66-16.012 35.754-35.664 35.754zm288.69-60.281-43.75 57.41c-1.3047 1.7422-3.2188 2.8711-5.3906 2.8711h-119.69c-2.1719 0-4.0859-1.1289-5.3906-2.8711l-43.75-57.41c-3.3945-4.5234-0.26172-11.129 5.4766-11.129h207.02c5.7422 0 8.8633 6.6055 5.4766 11.129zm70.711 60.281c-19.66 0-35.664-16.09-35.664-35.754 0-19.66 16.004-35.664 35.664-35.664 19.66 0 35.754 16.004 35.754 35.664s-16.094 35.754-35.754 35.754z"/>
  <use x="70" y="691.25" xlink:href="#n"/>
  <use x="102.109375" y="691.25" xlink:href="#b"/>
  <use x="123.683594" y="691.25" xlink:href="#a"/>
  <use x="153.355469" y="691.25" xlink:href="#d"/>
  <use x="182.878906" y="691.25" xlink:href="#c"/>
  <use x="203.792969" y="691.25" xlink:href="#a"/>
  <use x="233.464844" y="691.25" xlink:href="#h"/>
  <use x="280.011719" y="691.25" xlink:href="#g"/>
  <use x="311.328125" y="691.25" xlink:href="#f"/>
  <use x="355.078125" y="691.25" xlink:href="#e"/>
  <use x="388.9375" y="691.25" xlink:href="#a"/>
  <use x="418.613281" y="691.25" xlink:href="#m"/>
  <use x="444.546875" y="691.25" xlink:href="#c"/>
  <use x="465.460938" y="691.25" xlink:href="#l"/>
  <use x="495.515625" y="691.25" xlink:href="#b"/>
  <use x="517.089844" y="691.25" xlink:href="#k"/>
  <use x="558.363281" y="691.25" xlink:href="#j"/>
  <use x="601.898438" y="691.25" xlink:href="#d"/>
  <use x="631.421875" y="691.25" xlink:href="#b"/>
  <use x="653" y="691.25" xlink:href="#i"/>
  <use x="682.09375" y="691.25" xlink:href="#a"/>
 </g>
</svg>
