<?xml version="1.0" encoding="UTF-8"?>
<svg width="700pt" height="700pt" version="1.1" viewBox="0 0 700 700" xmlns="http://www.w3.org/2000/svg" xmlns:xlink="http://www.w3.org/1999/xlink">
 
 <g>
  <path d="m569.4 396.99-29.324-10.664-76.578-87.16-0.003906 0.003906c-10.121-11.531-24.715-18.141-40.059-18.141h-280.7c-9.4102 0.007812-18.434 3.75-25.09 10.406-6.6523 6.6523-10.398 15.676-10.406 25.086v141.89c0.007813 9.4102 3.7539 18.434 10.406 25.09 6.6562 6.6523 15.68 10.395 25.09 10.406h23.199c3.7109 12.121 12.453 22.062 24.008 27.289 11.551 5.2227 24.789 5.2227 36.344 0 11.551-5.2266 20.297-15.168 24.004-27.289h209.82c3.707 12.121 12.453 22.062 24.008 27.289 11.551 5.2227 24.793 5.2227 36.344 0 11.551-5.2266 20.297-15.168 24.008-27.289h12.793c9.4102-0.011718 18.434-3.7539 25.09-10.406 6.6523-6.6562 10.398-15.68 10.406-25.09v-28.07c-0.019531-7.2812-2.2656-14.379-6.4453-20.344-4.1758-5.9648-10.082-10.504-16.918-13.008zm-361.29 110.62 0.003906 0.003907c-7.1406 0-13.984-2.8359-19.031-7.8828-5.0508-5.043-7.8867-11.891-7.8867-19.027s2.832-13.984 7.8789-19.031 11.891-7.8828 19.027-7.8867c7.1406 0 13.984 2.8359 19.031 7.8828 5.0508 5.043 7.8867 11.891 7.8867 19.027-0.007812 7.1367-2.8438 13.977-7.8867 19.023-5.0469 5.043-11.887 7.8828-19.02 7.8945zm294.18 0 0.003906 0.003907c-7.1367 0-13.984-2.8359-19.031-7.8828-5.0469-5.043-7.8828-11.891-7.8867-19.027 0-7.1367 2.8359-13.984 7.8789-19.031 5.0469-5.0469 11.891-7.8828 19.031-7.8867 7.1367 0 13.98 2.8359 19.031 7.8828 5.0469 5.043 7.8828 11.891 7.8828 19.027-0.007813 7.1328-2.8438 13.977-7.8867 19.02-5.0469 5.0469-11.887 7.8867-19.02 7.8984zm72.965-49.203 0.003907 0.003906c-0.007813 4.7695-1.9023 9.3438-5.2773 12.719-3.375 3.3711-7.9492 5.2695-12.719 5.2773h-10.996c-1.3555-14.754-10.023-27.848-23.074-34.859-13.055-7.0117-28.754-7.0117-41.805 0-13.055 7.0117-21.719 20.105-23.078 34.859h-206.23c-1.3555-14.754-10.02-27.848-23.074-34.859-13.051-7.0117-28.75-7.0117-41.801 0-13.055 7.0117-21.719 20.105-23.074 34.859h-21.402c-4.7695-0.007812-9.3438-1.9062-12.719-5.2773-3.3711-3.375-5.2695-7.9492-5.2773-12.719v-141.89c0.007813-4.7695 1.9062-9.3438 5.2773-12.715 3.375-3.375 7.9492-5.2734 12.719-5.2773h280.7c10.305 0 20.109 4.4414 26.91 12.184l79.543 90.535 33.531 12.184c3.4648 1.2695 6.4609 3.5703 8.5781 6.5938 2.1172 3.0273 3.2578 6.625 3.2656 10.316z"/>
  <path d="m230.4 397.24h-80.238c-2.3203 0-4.5469-0.92188-6.1875-2.5625-1.6445-1.6406-2.5625-3.8672-2.5625-6.1875v-62.406c0-2.3203 0.91797-4.5469 2.5625-6.1875 1.6406-1.6406 3.8672-2.5625 6.1875-2.5625h80.238c2.3203 0 4.5469 0.92187 6.1875 2.5625 1.6406 1.6406 2.5625 3.8672 2.5625 6.1875v62.406c0 2.3203-0.92188 4.5469-2.5625 6.1875-1.6406 1.6406-3.8672 2.5625-6.1875 2.5625zm-71.488-17.5h62.738v-44.906h-62.738z"/>
  <path d="m337.37 395.85h-80.23c-2.3203 0-4.5469-0.91797-6.1875-2.5625-1.6406-1.6406-2.5625-3.8672-2.5625-6.1875v-62.402c0-2.3203 0.92188-4.5469 2.5625-6.1914 1.6406-1.6406 3.8672-2.5625 6.1875-2.5586h80.23c2.3203-0.003906 4.5469 0.91797 6.1875 2.5586 1.6406 1.6445 2.5625 3.8711 2.5625 6.1914v62.402c0 2.3203-0.92188 4.5469-2.5625 6.1875-1.6406 1.6445-3.8672 2.5625-6.1875 2.5625zm-71.477-17.5h62.727v-44.902h-62.73z"/>
  <path d="m481.26 395.85h-118.4c-2.3203 0-4.5469-0.91797-6.1875-2.5625-1.6406-1.6406-2.5625-3.8672-2.5625-6.1875v-62.402c0-2.3203 0.92188-4.5469 2.5625-6.1914 1.6406-1.6406 3.8672-2.5625 6.1875-2.5586h62.402c2.4844 0 4.8516 1.0547 6.5117 2.9023l55.996 62.402v0.003906c2.3008 2.5703 2.8789 6.2539 1.4727 9.4062s-4.5312 5.1836-7.9844 5.1875zm-109.65-17.5h90.039l-40.289-44.902h-49.75z"/>
  <path d="m390.86 425.38h-26.746c-4.832 0-8.75-3.918-8.75-8.75 0-4.832 3.918-8.75 8.75-8.75h26.746c4.832 0 8.75 3.918 8.75 8.75 0 4.832-3.918 8.75-8.75 8.75z"/>
  <path d="m219.9 259.5-71.793-69.59c-1.668-1.6172-2.625-3.8359-2.6562-6.1641-0.035156-2.3242 0.85938-4.5664 2.4844-6.2344l0.78516-0.79297c7.6484-8.168 15.711-15.934 24.156-23.27 2.4492-2.1133 5.8594-2.7109 8.8789-1.5547l21.516 8.3125c16.652 6.4531 30.805 11.93 49.672 18.895 24.711-16.895 43.992-29.652 61.004-41.16-35.316-21.543-70.102-43.324-105.5-65.555-2.6406-1.668-4.1992-4.6133-4.082-7.7344 0.11328-3.1172 1.8789-5.9414 4.6367-7.4102l40.23-21.344c2.043-1.082 4.4336-1.3125 6.6484-0.64062l144.98 44.031c11.859-8.3828 43.613-29.617 70.07-36.504h-0.003907c24.348-7.0625 50.352-5.8008 73.898 3.5781 3.4336 1.3516 6.2656 3.9023 7.9688 7.1758 1.7031 3.2734 2.1641 7.0547 1.2969 10.641-0.86719 3.5898-3 6.7422-6.0117 8.8789-43.141 29.012-253.29 153.77-318 187.9-3.3516 1.7695-7.4609 1.1797-10.18-1.4609zm-53.301-76.031 60.906 59.027c68.137-36.633 257.98-149.31 306.92-181.38-19.055-6.6875-39.738-7.1758-59.09-1.3906-24.363 8.3906-47.223 20.633-67.719 36.254-2.2227 1.6211-5.0781 2.1055-7.7148 1.3164l-145.66-44.238-23.672 12.555c34.797 21.832 69.121 43.254 104.06 64.43l0.003907-0.003907c2.5391 1.5469 4.1211 4.2695 4.2031 7.2383 0.082031 2.9688-1.3438 5.7773-3.793 7.4609-22.539 15.48-43.488 29.113-75.938 51.363-2.3359 1.6055-5.3086 1.9727-7.9648 0.99219-21.148-7.7656-36.215-13.605-54.184-20.559l-16.559-6.3906c-4.7695 4.2461-8.0508 7.4727-13.801 13.328z"/>
  <use x="70" y="691.25" xlink:href="#k"/>
  <use x="102.109375" y="691.25" xlink:href="#h"/>
  <use x="123.683594" y="691.25" xlink:href="#b"/>
  <use x="153.355469" y="691.25" xlink:href="#g"/>
  <use x="182.878906" y="691.25" xlink:href="#f"/>
  <use x="203.792969" y="691.25" xlink:href="#b"/>
  <use x="233.464844" y="691.25" xlink:href="#a"/>
  <use x="280.011719" y="691.25" xlink:href="#e"/>
  <use x="311.328125" y="691.25" xlink:href="#d"/>
  <use x="355.078125" y="691.25" xlink:href="#c"/>
  <use x="388.9375" y="691.25" xlink:href="#j"/>
  <use x="420.085938" y="691.25" xlink:href="#a"/>
  <use x="451.402344" y="691.25" xlink:href="#i"/>
 </g>
</svg>
